<?xml version="1.0" encoding="UTF-8"?>
<svg xmlns="http://www.w3.org/2000/svg" xmlns:xlink="http://www.w3.org/1999/xlink" width="50px" height="50px" viewBox="0 0 50 50" version="1.1">
<g id="surface1">
<path style=" stroke:none;fill-rule:nonzero;fill:rgb(25.882354%,52.156866%,95.686275%);fill-opacity:1;" d="M 50 25.554688 C 50 23.503906 49.828125 22.007812 49.460938 20.457031 L 25.511719 20.457031 L 25.511719 29.707031 L 39.570312 29.707031 C 39.285156 32.007812 37.753906 35.46875 34.355469 37.796875 L 34.304688 38.105469 L 41.878906 43.839844 L 42.402344 43.890625 C 47.222656 39.542969 50 33.144531 50 25.554688 "/>
<path style=" stroke:none;fill-rule:nonzero;fill:rgb(20.392157%,65.882355%,32.549021%);fill-opacity:1;" d="M 25.511719 49.929688 C 32.398438 49.929688 38.179688 47.710938 42.402344 43.890625 L 34.355469 37.796875 C 32.199219 39.265625 29.308594 40.289062 25.511719 40.289062 C 18.765625 40.289062 13.039062 35.941406 10.996094 29.929688 L 10.699219 29.957031 L 2.824219 35.910156 L 2.722656 36.191406 C 6.914062 44.332031 15.53125 49.929688 25.511719 49.929688 "/>
<path style=" stroke:none;fill-rule:nonzero;fill:rgb(98.431373%,73.725492%,1.960784%);fill-opacity:1;" d="M 10.996094 29.929688 C 10.460938 28.378906 10.148438 26.71875 10.148438 25 C 10.148438 23.28125 10.460938 21.621094 10.96875 20.070312 L 10.953125 19.738281 L 2.980469 13.6875 L 2.722656 13.808594 C 0.992188 17.1875 0 20.984375 0 25 C 0 29.015625 0.992188 32.8125 2.722656 36.191406 L 10.996094 29.929688 "/>
<path style=" stroke:none;fill-rule:nonzero;fill:rgb(92.156863%,26.274511%,20.784314%);fill-opacity:1;" d="M 25.511719 9.710938 C 30.300781 9.710938 33.53125 11.730469 35.375 13.421875 L 42.574219 6.554688 C 38.152344 2.535156 32.398438 0.0703125 25.511719 0.0703125 C 15.53125 0.0703125 6.914062 5.667969 2.722656 13.808594 L 10.96875 20.070312 C 13.039062 14.058594 18.765625 9.710938 25.511719 9.710938 "/>
</g>
</svg>
